<svg xmlns="http://www.w3.org/2000/svg" viewBox="0 0 181.31 159.59"><defs><style>.cls-1,.cls-2{stroke-miterlimit:10;stroke-width:9px;}.cls-1{stroke-linecap:round;}</style></defs><g id="Layer_2" data-name="Layer 2"><g id="Layer_1-2" data-name="Layer 1"><path fill="current" stroke="current" class="cls-1" d="M125.56,154.33c4.44-.37,5.13-.25,5.15-.11.27,1.83-124.11.22-125.19.11a1.19,1.19,0,0,1-.72-.3,1,1,0,0,1-.3-.72V17.23A12.73,12.73,0,0,1,17.23,4.5H164.08a12.73,12.73,0,0,1,12.73,12.73V153.31h0"/><path class="cls-2" d="M5.69,152.19,64.61,96.68a5.07,5.07,0,0,1,7,0l58.33,56.74a.43.43,0,0,1-.31.74l-123.5-.89A.65.65,0,0,1,5.69,152.19Z"/><path class="cls-2" d="M108.49,132.83l23.25-16.13a6.14,6.14,0,0,1,7.77.63l37.3,36"/><path class="cls-2" d="M128.12,154.33H75.34"/><circle class="cls-2" cx="130.49" cy="51.48" r="13.98"/></g></g></svg>