<svg xmlns="http://www.w3.org/2000/svg" viewBox="0 0 191.74 171.63"><defs><style>.cls-1{stroke-linecap:round;stroke-miterlimit:10;stroke-width:9px;}</style></defs><g id="Layer_2" data-name="Layer 2"><g id="Layer_1-2" data-name="Layer 1"><path fill="current" stroke="current" class="cls-1" d="M180.42,45.93c-.66,3-13.34,60.77-23.73,97.12-1.45,5.08-4.37,15.52-13.56,20.54-2.32,1.27-11.82,6.46-20.09,1.3a17.13,17.13,0,0,1-7.64-16.49c1.09-8.21,8.57-15,18-15.52"/><path fill="current" stroke="current" class="cls-1" d="M42.58,152.71A19.44,19.44,0,0,0,43,133.22c-4.93-8.75-14.82-9.5-16.28-9.58C17.94,123.13,7.9,128.42,5.2,138A19.08,19.08,0,0,0,9.81,156.4c8.54,8.51,21.68,3.73,23.17,3.16,12.77-4.89,15.89-18.76,16.14-19.92L78.34,13.3A11.36,11.36,0,0,1,89.41,4.5h67.11"/><path fill="current" stroke="current" class="cls-1" d="M146,4.5l30.42.66a11.06,11.06,0,0,1,10.53,13.58q-5.24,22.4-10.46,44.78"/><path fill="current" stroke="current" class="cls-1" d="M178.55,51l-74.23-.48"/></g></g></svg>