<svg xmlns="http://www.w3.org/2000/svg" viewBox="0 0 149.56 194.49"><defs><style>.cls-1,.cls-3{fill:none;stroke:#c1c0c0;stroke-miterlimit:10;stroke-width:7px;}.cls-1{stroke-linecap:round;}.cls-2{fill:#c1c0c0;opacity:0.8;}</style></defs><g id="Layer_2" data-name="Layer 2"><g id="Layer_1-2" data-name="Layer 1"><path class="cls-1" d="M71.75,191H10.84a7.35,7.35,0,0,1-7.34-7.35V10.84A7.34,7.34,0,0,1,10.84,3.5H81.61A22.59,22.59,0,0,1,97.34,9.87l23.24,22.5,16.91,16.37a26.16,26.16,0,0,1,7.95,18.19q.31,13.63.62,27.29"/><path class="cls-2" d="M145.87,188.84l-13.45-27.09,13.64-4.48-34.18-30q2,23,4,46l11.89-9.35Q134.85,177.45,142,191Z"/><path class="cls-3" d="M88,8.37q.49,24.11,1,48.21a2,2,0,0,0,2,1.93l48.08.14a2,2,0,0,0,1.39-3.39L91.35,6.91A2,2,0,0,0,88,8.37Z"/></g></g></svg>