<svg xmlns="http://www.w3.org/2000/svg" viewBox="0 0 174.57 174.66"><defs><style>.cls-1{stroke-linecap:round;stroke-miterlimit:10;stroke-width:9px;}</style></defs><g id="Layer_2" data-name="Layer 2"><g id="Layer_1-2" data-name="Layer 1"><path fill="current" stroke="current" class="cls-1" d="M4.5,30.15C4.56,27.83,5.11,18.92,12,12A25.6,25.6,0,0,1,30.15,4.5h8A25.66,25.66,0,0,1,60.92,18.37l.14.28A25.67,25.67,0,0,0,83.85,32.51H144.1a25.67,25.67,0,0,1,25.66,25.56l.31,86.35a25.65,25.65,0,0,1-25.65,25.74H30.15A25.65,25.65,0,0,1,4.5,144.51V61"/><path fill="current" stroke="current" class="cls-1" d="M4.5,79.85l165.34.31"/></g></g></svg>