<svg xmlns="http://www.w3.org/2000/svg" viewBox="0 0 306.94 180.07"><defs><style>.cls-1{fill:none;stroke:#666;stroke-linecap:round;stroke-miterlimit:10;stroke-width:9px;}</style></defs><g id="Layer_2" data-name="Layer 2"><g id="Layer_1-2" data-name="Layer 1"><path class="cls-1" d="M302.44,118.55h0a57,57,0,0,1-57,57H125.32a57,57,0,0,1-57-57h0a57,57,0,0,1,57-57"/><path class="cls-1" d="M49.72,117.4c-14.79-2.77-24.95-12-28.52-15.55A56.81,56.81,0,0,1,4.5,61.52h0a57,57,0,0,1,57-57h120.1a57,57,0,0,1,57,57h0a57,57,0,0,1-57,57c-27.72,0-68.83-.77-96.77,0"/><path class="cls-1" d="M256.49,62.69a59.59,59.59,0,0,1,29.24,15.54,56.9,56.9,0,0,1,16.71,40.32h0a57,57,0,0,1-57,57H125.32a57,57,0,0,1-57-57h0a57,57,0,0,1,57-57h93.19"/></g></g></svg>